<?xml version="1.0" encoding="utf-8"?>
<svg version="1.1" xmlns:xlink="http://www.w3.org/1999/xlink" width="20px" height="28px" xmlns="http://www.w3.org/2000/svg">
  <g transform="matrix(1 0 0 1 -42 -5060 )">
    <path d="M 19.7222222222222 9.83333333333333  C 19.7222222222222 4.45833333333333  15.375 0.111111111111111  10 0.111111111111111  C 4.625 0.111111111111111  0.277777777777779 4.45833333333333  0.277777777777779 9.83333333333333  C 0.277777777777779 17.125  10 27.8888888888889  10 27.8888888888889  C 10 27.8888888888889  19.7222222222222 17.125  19.7222222222222 9.83333333333333  Z M 10 23.5555555555556  C 7.11111111111111 19.8472222222222  3.05555555555556 13.7916666666667  3.05555555555556 9.83333333333333  C 3.05555555555556 6  6.16666666666667 2.88888888888889  10 2.88888888888889  C 13.8333333333333 2.88888888888889  16.9444444444445 6  16.9444444444445 9.83333333333333  C 16.9444444444445 13.8333333333333  12.9444444444444 19.8194444444445  10 23.5555555555556  Z " fill-rule="nonzero" fill="#ffffff" stroke="none" transform="matrix(1 0 0 1 42 5060 )" />
  </g>
</svg>