<?xml version="1.0" encoding="utf-8"?>
<svg version="1.1" xmlns:xlink="http://www.w3.org/1999/xlink" width="37px" height="37px" xmlns="http://www.w3.org/2000/svg">
  <g transform="matrix(1 0 0 1 -1190 -5087 )">
    <path d="M 6.9375 0  L 30.0625 0  C 31.9735243055556 0  33.6075303819445 0.678493923611109  34.9645182291667 2.03548177083333  C 36.3215060763889 3.39246961805555  37 5.02647569444444  37 6.9375  L 37 30.0625  C 37 31.9735243055556  36.3215060763889 33.6075303819445  34.9645182291667 34.9645182291667  C 33.6075303819445 36.3215060763889  31.9735243055556 37  30.0625 37  L 25 37  L 25 22.6673177083333  L 30.3274739583333 22.6673177083333  L 31.0501302083333 17.0787760416667  L 25.5338541666667 17.0787760416667  L 25.5338541666667 13.513671875  C 25.5338541666667 12.6143663194444  25.7225477430556 11.9398871527778  26.0999348958333 11.490234375  C 26.4773220486111 11.0405815972222  27.2120225694444 10.8157552083333  28.3040364583333 10.8157552083333  L 31.2428385416667 10.7916666666667  L 31.2428385416667 5.80533854166667  C 30.2311197916667 5.66080729166667  28.8018663194444 5.58854166666667  26.955078125 5.58854166666667  C 24.7710503472222 5.58854166666667  23.0246310763889 6.23090277777777  21.7158203125 7.515625  C 20.4070095486111 8.80034722222222  19.7526041666667 10.6150173611111  19.7526041666667 12.9596354166667  L 19.7526041666667 17.0787760416667  L 14.9348958333333 17.0787760416667  L 14.9348958333333 22.6673177083333  L 19.7526041666667 22.6673177083333  L 19.7526041666667 37  L 6.9375 37  C 5.02647569444444 37  3.39246961805556 36.3215060763889  2.03548177083333 34.9645182291667  C 0.678493923611111 33.6075303819445  0 31.9735243055556  0 30.0625  L 0 6.9375  C 0 5.02647569444444  0.678493923611111 3.39246961805555  2.03548177083333 2.03548177083333  C 3.39246961805556 0.678493923611109  5.02647569444444 0  6.9375 0  Z " fill-rule="nonzero" fill="#ffffff" stroke="none" transform="matrix(1 0 0 1 1190 5087 )" />
  </g>
</svg>