<?xml version="1.0" encoding="utf-8"?>
<svg version="1.1" xmlns:xlink="http://www.w3.org/1999/xlink" width="37px" height="37px" xmlns="http://www.w3.org/2000/svg">
  <g transform="matrix(1 0 0 1 -1129 -5087 )">
    <path d="M 22.8600260416667 22.8600260416667  C 24.064453125 21.6555989583333  24.6666666666667 20.2022569444444  24.6666666666667 18.5  C 24.6666666666667 16.7977430555556  24.064453125 15.3444010416667  22.8600260416667 14.1399739583333  C 21.6555989583333 12.935546875  20.2022569444444 12.3333333333333  18.5 12.3333333333333  C 16.7977430555556 12.3333333333333  15.3444010416667 12.935546875  14.1399739583333 14.1399739583333  C 12.935546875 15.3444010416667  12.3333333333333 16.7977430555556  12.3333333333333 18.5  C 12.3333333333333 20.2022569444444  12.935546875 21.6555989583333  14.1399739583333 22.8600260416667  C 15.3444010416667 24.064453125  16.7977430555556 24.6666666666667  18.5 24.6666666666667  C 20.2022569444444 24.6666666666667  21.6555989583333 24.064453125  22.8600260416667 22.8600260416667  Z M 25.220703125 11.779296875  C 27.0674913194444 13.6260850694444  27.9908854166667 15.8663194444444  27.9908854166667 18.5  C 27.9908854166667 21.1336805555556  27.0674913194444 23.3739149305556  25.220703125 25.220703125  C 23.3739149305556 27.0674913194444  21.1336805555556 27.9908854166667  18.5 27.9908854166667  C 15.8663194444444 27.9908854166667  13.6260850694444 27.0674913194444  11.779296875 25.220703125  C 9.93250868055556 23.3739149305556  9.00911458333333 21.1336805555556  9.00911458333333 18.5  C 9.00911458333333 15.8663194444444  9.93250868055556 13.6260850694444  11.779296875 11.779296875  C 13.6260850694444 9.93250868055555  15.8663194444444 9.00911458333333  18.5 9.00911458333333  C 21.1336805555556 9.00911458333333  23.3739149305556 9.93250868055555  25.220703125 11.779296875  Z M 29.9420572916667 7.05794270833333  C 30.3756510416667 7.49153645833333  30.5924479166667 8.01345486111111  30.5924479166667 8.62369791666667  C 30.5924479166667 9.23394097222222  30.3756510416667 9.755859375  29.9420572916667 10.189453125  C 29.5084635416667 10.623046875  28.9865451388889 10.83984375  28.3763020833333 10.83984375  C 27.7660590277778 10.83984375  27.244140625 10.623046875  26.810546875 10.189453125  C 26.376953125 9.755859375  26.16015625 9.23394097222222  26.16015625 8.62369791666667  C 26.16015625 8.01345486111111  26.376953125 7.49153645833333  26.810546875 7.05794270833333  C 27.244140625 6.62434895833333  27.7660590277778 6.40755208333333  28.3763020833333 6.40755208333333  C 28.9865451388889 6.40755208333333  29.5084635416667 6.62434895833333  29.9420572916667 7.05794270833333  Z M 20.3427734375 3.31217447916667  C 19.2266710069444 3.32020399305555  18.6124131944444 3.32421875  18.5 3.32421875  C 18.3875868055556 3.32421875  17.7733289930556 3.32020399305555  16.6572265625 3.31217447916667  C 15.5411241319444 3.30414496527777  14.6940104166667 3.30414496527777  14.1158854166667 3.31217447916667  C 13.5377604166667 3.32020399305555  12.7629123263889 3.34429253472222  11.7913411458333 3.38444010416667  C 10.8197699652778 3.42458767361111  9.99273003472222 3.5048828125  9.31022135416667 3.62532552083333  C 8.62771267361111 3.74576822916667  8.05360243055556 3.89431423611111  7.587890625 4.07096354166667  C 6.78493923611111 4.39214409722222  6.07834201388889 4.85785590277777  5.46809895833333 5.46809895833333  C 4.85785590277778 6.07834201388889  4.39214409722222 6.78493923611111  4.07096354166667 7.587890625  C 3.89431423611111 8.05360243055555  3.74576822916667 8.62771267361111  3.62532552083333 9.31022135416667  C 3.5048828125 9.99273003472222  3.42458767361111 10.8197699652778  3.38444010416667 11.7913411458333  C 3.34429253472222 12.7629123263889  3.32020399305556 13.5377604166667  3.31217447916667 14.1158854166667  C 3.30414496527778 14.6940104166667  3.30414496527778 15.5411241319444  3.31217447916667 16.6572265625  C 3.32020399305556 17.7733289930556  3.32421875 18.3875868055556  3.32421875 18.5  C 3.32421875 18.6124131944444  3.32020399305556 19.2266710069444  3.31217447916667 20.3427734375  C 3.30414496527778 21.4588758680556  3.30414496527778 22.3059895833333  3.31217447916667 22.8841145833333  C 3.32020399305556 23.4622395833333  3.34429253472222 24.2370876736111  3.38444010416667 25.2086588541667  C 3.42458767361111 26.1802300347222  3.5048828125 27.0072699652778  3.62532552083333 27.6897786458333  C 3.74576822916667 28.3722873263889  3.89431423611111 28.9463975694444  4.07096354166667 29.412109375  C 4.39214409722222 30.2150607638889  4.85785590277778 30.9216579861111  5.46809895833333 31.5319010416667  C 6.07834201388889 32.1421440972222  6.78493923611111 32.6078559027778  7.587890625 32.9290364583333  C 8.05360243055556 33.1056857638889  8.62771267361111 33.2542317708333  9.31022135416667 33.3746744791667  C 9.99273003472222 33.4951171875  10.8197699652778 33.5754123263889  11.7913411458333 33.6155598958333  C 12.7629123263889 33.6557074652778  13.5377604166667 33.6797960069445  14.1158854166667 33.6878255208333  C 14.6940104166667 33.6958550347222  15.5411241319444 33.6958550347222  16.6572265625 33.6878255208333  C 17.7733289930556 33.6797960069445  18.3875868055556 33.67578125  18.5 33.67578125  C 18.6124131944444 33.67578125  19.2266710069444 33.6797960069445  20.3427734375 33.6878255208333  C 21.4588758680556 33.6958550347222  22.3059895833333 33.6958550347222  22.8841145833333 33.6878255208333  C 23.4622395833333 33.6797960069445  24.2370876736111 33.6557074652778  25.2086588541667 33.6155598958333  C 26.1802300347222 33.5754123263889  27.0072699652778 33.4951171875  27.6897786458333 33.3746744791667  C 28.3722873263889 33.2542317708333  28.9463975694444 33.1056857638889  29.412109375 32.9290364583333  C 30.2150607638889 32.6078559027778  30.9216579861111 32.1421440972222  31.5319010416667 31.5319010416667  C 32.1421440972222 30.9216579861111  32.6078559027778 30.2150607638889  32.9290364583333 29.412109375  C 33.1056857638889 28.9463975694444  33.2542317708333 28.3722873263889  33.3746744791667 27.6897786458333  C 33.4951171875 27.0072699652778  33.5754123263889 26.1802300347222  33.6155598958333 25.2086588541667  C 33.6557074652778 24.2370876736111  33.6797960069445 23.4622395833333  33.6878255208333 22.8841145833333  C 33.6958550347222 22.3059895833333  33.6958550347222 21.4588758680556  33.6878255208333 20.3427734375  C 33.6797960069445 19.2266710069444  33.67578125 18.6124131944444  33.67578125 18.5  C 33.67578125 18.3875868055556  33.6797960069445 17.7733289930556  33.6878255208333 16.6572265625  C 33.6958550347222 15.5411241319444  33.6958550347222 14.6940104166667  33.6878255208333 14.1158854166667  C 33.6797960069445 13.5377604166667  33.6557074652778 12.7629123263889  33.6155598958333 11.7913411458333  C 33.5754123263889 10.8197699652778  33.4951171875 9.99273003472222  33.3746744791667 9.31022135416667  C 33.2542317708333 8.62771267361111  33.1056857638889 8.05360243055555  32.9290364583333 7.587890625  C 32.6078559027778 6.78493923611111  32.1421440972222 6.07834201388889  31.5319010416667 5.46809895833333  C 30.9216579861111 4.85785590277777  30.2150607638889 4.39214409722222  29.412109375 4.07096354166667  C 28.9463975694444 3.89431423611111  28.3722873263889 3.74576822916667  27.6897786458333 3.62532552083333  C 27.0072699652778 3.5048828125  26.1802300347222 3.42458767361111  25.2086588541667 3.38444010416667  C 24.2370876736111 3.34429253472222  23.4622395833333 3.32020399305555  22.8841145833333 3.31217447916667  C 22.3059895833333 3.30414496527777  21.4588758680556 3.30414496527777  20.3427734375 3.31217447916667  Z M 36.8795572916667 10.8639322916667  C 36.9598524305556 12.2771267361111  37 14.8224826388889  37 18.5  C 37 22.1775173611111  36.9598524305556 24.7228732638889  36.8795572916667 26.1360677083333  C 36.7189670138889 29.4763454861111  35.7233072916667 32.0618489583333  33.892578125 33.892578125  C 32.0618489583333 35.7233072916667  29.4763454861111 36.7189670138889  26.1360677083333 36.8795572916667  C 24.7228732638889 36.9598524305556  22.1775173611111 37  18.5 37  C 14.8224826388889 37  12.2771267361111 36.9598524305556  10.8639322916667 36.8795572916667  C 7.52365451388889 36.7189670138889  4.93815104166667 35.7233072916667  3.107421875 33.892578125  C 1.27669270833333 32.0618489583333  0.281032986111111 29.4763454861111  0.120442708333333 26.1360677083333  C 0.0401475694444444 24.7228732638889  0 22.1775173611111  0 18.5  C 0 14.8224826388889  0.0401475694444444 12.2771267361111  0.120442708333333 10.8639322916667  C 0.281032986111111 7.52365451388889  1.27669270833333 4.93815104166667  3.107421875 3.107421875  C 4.93815104166667 1.27669270833333  7.52365451388889 0.281032986111109  10.8639322916667 0.120442708333335  C 12.2771267361111 0.0401475694444394  14.8224826388889 0  18.5 0  C 22.1775173611111 0  24.7228732638889 0.0401475694444394  26.1360677083333 0.120442708333335  C 29.4763454861111 0.281032986111109  32.0618489583333 1.27669270833333  33.892578125 3.107421875  C 35.7233072916667 4.93815104166667  36.7189670138889 7.52365451388889  36.8795572916667 10.8639322916667  Z " fill-rule="nonzero" fill="#ffffff" stroke="none" transform="matrix(1 0 0 1 1129 5087 )" />
  </g>
</svg>