<?xml version="1.0" encoding="utf-8"?>
<svg version="1.1" xmlns:xlink="http://www.w3.org/1999/xlink" width="51px" height="51px" xmlns="http://www.w3.org/2000/svg">
  <g transform="matrix(1 0 0 1 -24 -43 )">
    <path d="M 0 25.007500750075  C 0 11.2061206120612  11.1911191119112 0  25.007500750075 0  C 38.8088808880888 0  50.01500150015 11.1911191119112  50.01500150015 25.007500750075  C 50.01500150015 38.8088808880888  38.8238823882388 50.01500150015  25.007500750075 50.01500150015  C 11.2061206120612 50.01500150015  0 38.8238823882388  0 25.007500750075  Z M 39.5739573957396 24.1074107410741  C 39.5739573957396 20.4020402040204  38.1338133813381 16.9066906690669  35.5085508550855 14.2814281428143  C 32.8832883288329 11.6561656165617  29.4029402940294 10.2160216021602  25.6825682568257 10.2160216021602  C 18.031803180318 10.2160216021602  11.8061806180618 16.4416441644164  11.8061806180618 24.0924092409241  C 11.8061806180618 26.5376537653765  12.4512451245125 28.9228922892289  13.6663666366637 31.023102310231  L 11.7011701170117 38.2238223822382  L 19.0669066906691 36.2886288628863  C 21.0921092109211 37.3987398739874  23.3723372337234 37.983798379838  25.6975697569757 37.983798379838  C 33.3483348334833 37.983798379838  39.5739573957396 31.7581758175818  39.5739573957396 24.1074107410741  Z M 25.7125712571257 35.6435643564356  L 25.6975697569757 35.6435643564356  C 23.6273627362736 35.6435643564356  21.5871587158716 35.0885088508851  19.8169816981698 34.038403840384  L 19.3969396939694 33.7833783378338  L 15.031503150315 34.9234923492349  L 16.2016201620162 30.6630663066307  L 15.9315931593159 30.2280228022802  C 14.7764776477648 28.3978397839784  14.1614161416142 26.2676267626763  14.1614161416142 24.0924092409241  C 14.1614161416142 17.7317731773177  19.3369336933693 12.5562556255626  25.7125712571257 12.5562556255626  C 28.7878787878788 12.5562556255626  31.6981698169817 13.7563756375638  33.8733873387339 15.9315931593159  C 36.0486048604861 18.1218121812181  37.2487248724873 21.002100210021  37.2487248724873 24.0924092409241  C 37.2487248724873 30.4530453045305  32.0732073207321 35.6435643564356  25.7125712571257 35.6435643564356  Z M 32.043204320432 26.972697269727  L 32.028202820282 27.002700270027  C 31.6831683168317 26.8226822682268  29.97299729973 25.997599759976  29.6579657965797 25.8775877587759  C 29.3429342934293 25.7575757575758  29.1029102910291 25.6975697569757  28.8778877887789 26.0576057605761  C 28.6528652865287 26.4026402640264  27.977797779778 27.1827182718272  27.7827782778278 27.4227422742274  C 27.5727572757276 27.6477647764777  27.3777377737774 27.6927692769277  27.032703270327 27.5127512751275  C 26.6876687668767 27.3327332733273  25.5625562556256 26.972697269727  24.2424242424242 25.7875787578758  C 23.2073207320732 24.8724872487249  22.5172517251725 23.7323732373237  22.3072307230723 23.3873387338734  C 22.0972097209721 23.042304230423  22.2772277227723 22.8472847284729  22.4572457245725 22.6822682268227  C 22.6222622262226 22.5322532253225  22.8022802280228 22.2772277227723  22.982298229823 22.0672067206721  C 23.1623162316232 21.8571857185719  23.2073207320732 21.7221722172217  23.3273327332733 21.4821482148215  C 23.4473447344735 21.2571257125713  23.3873387338734 21.0471047104711  23.2973297329733 20.8670867086709  C 23.2073207320732 20.6870687068707  22.5172517251725 18.991899189919  22.2322232223222 18.2868286828683  C 21.947194719472 17.6117611761176  21.6621662166217 17.7017701770177  21.4521452145215 17.6867686768677  C 21.2421242124212 17.6717671767177  21.017101710171 17.6717671767177  20.7920792079208 17.6717671767177  C 20.5670567056706 17.6717671767177  20.1920192019202 17.7617761776178  19.8619861986199 18.1068106810681  C 19.5469546954696 18.4518451845185  18.6468646864687 19.2919291929193  18.6468646864687 21.002100210021  C 18.6468646864687 22.7122712271227  19.8919891989199 24.3624362436244  20.0570057005701 24.5874587458746  C 20.2370237023702 24.8124812481248  22.5022502250225 28.3228322832283  25.982598259826 29.8229822982298  C 26.8076807680768 30.1830183018302  27.4527452745275 30.3930393039304  27.962796279628 30.5580558055806  C 28.7878787878788 30.8130813081308  29.5529552955296 30.7830783078308  30.1530153015302 30.6930693069307  C 30.8130813081308 30.5880588058806  32.2082208220822 29.8529852985299  32.4932493249325 29.042904290429  C 32.7782778277828 28.2328232823282  32.7782778277828 27.5427542754275  32.7032703270327 27.3927392739274  C 32.6282628262826 27.2427242724272  32.3882388238824 27.1527152715272  32.043204320432 26.972697269727  Z " fill-rule="nonzero" fill="#2699fb" stroke="none" transform="matrix(1 0 0 1 24 43 )" />
  </g>
</svg>