<?xml version="1.0" encoding="utf-8"?>
<svg version="1.1" xmlns:xlink="http://www.w3.org/1999/xlink" width="21px" height="21px" xmlns="http://www.w3.org/2000/svg">
  <g transform="matrix(1 0 0 1 -638 -544 )">
    <path d="M 21 10.5  C 21 4.704  16.296 0  10.5 0  C 4.704 0  0 4.704  0 10.5  C 0 16.296  4.704 21  10.5 21  C 16.296 21  21 16.296  21 10.5  Z M 18.9 10.5  C 18.9 15.141  15.141 18.9  10.5 18.9  C 5.859 18.9  2.1 15.141  2.1 10.5  C 2.1 5.859  5.859 2.1  10.5 2.1  C 15.141 2.1  18.9 5.859  18.9 10.5  Z " fill-rule="nonzero" fill="#2699fb" stroke="none" transform="matrix(1 0 0 1 638 544 )" />
  </g>
</svg>