<?xml version="1.0" encoding="utf-8"?>
<svg version="1.1" xmlns:xlink="http://www.w3.org/1999/xlink" width="50px" height="44px" xmlns="http://www.w3.org/2000/svg">
  <g transform="matrix(1 0 0 1 -548 -252 )">
    <path d="M 6.32233796296296 1.07421875  C 7.04571759259259 1.79036458333333  7.40740740740741 2.65451388888889  7.40740740740741 3.66666666666667  C 7.40740740740741 5.04166666666667  6.79012345679012 6.09201388888889  6 6.81770833333333  L 6 43.0833333333333  C 5.55555555555556 43.3315972222222  5.4639274691358 43.5464409722222  5.2806712962963 43.7278645833333  C 5.09741512345679 43.9092881944444  4.8804012345679 44  4.62962962962963 44  L 2.77777777777778 44  C 2.52700617283951 44  2.30999228395062 43.9092881944444  2.12673611111111 43.7278645833333  C 1.94347993827161 43.5464409722222  1.85185185185185 43.3315972222222  2 43.0833333333333  L 2 6.81770833333333  C 0.617283950617284 6.09201388888889  0 5.04166666666667  0 3.66666666666667  C 0 2.65451388888889  0.361689814814815 1.79036458333333  1.08506944444444 1.07421875  C 1.80844907407407 0.358072916666668  2.68132716049383 0  3.7037037037037 0  C 4.72608024691358 0  5.59895833333333 0.358072916666668  6.32233796296296 1.07421875  Z M 49.4502314814815 4.2109375  C 49.8167438271605 4.57378472222222  50 5.00347222222222  50 5.5  L 50 27.3567708333333  C 50 27.8342013888889  49.8794367283951 28.2018229166667  49.6383101851852 28.4596354166667  C 49.3971836419753 28.7174479166667  49.0162037037037 28.9800347222222  48.4953703703704 29.2473958333333  C 44.3479938271605 31.4626736111111  40.7889660493827 32.5703125  37.818287037037 32.5703125  C 36.6415895061728 32.5703125  35.4504243827161 32.3602430555556  34.2447916666667 31.9401041666667  C 33.0391589506173 31.5199652777778  31.9926697530864 31.0616319444444  31.1053240740741 30.5651041666667  C 30.2179783950617 30.0685763888889  29.1039737654321 29.6102430555556  27.7633101851852 29.1901041666667  C 26.4226466049383 28.7699652777778  25.048225308642 28.5598958333333  23.6400462962963 28.5598958333333  C 19.9363425925926 28.5598958333333  15.4610339506173 29.9539930555556  10.2141203703704 32.7421875  C 9.88618827160494 32.9140625  9.5679012345679 33  9.25925925925926 33  C 8.75771604938272 33  8.32368827160494 32.8185763888889  7.95717592592593 32.4557291666667  C 7.59066358024691 32.0928819444444  7.40740740740741 31.6631944444444  8 31.1666666666667  L 8 9.91145833333333  C 7.40740740740741 9.30034722222222  7.70640432098766 8.77517361111111  8.30439814814815 8.3359375  C 8.70949074074074 8.06857638888889  9.47145061728395 7.65798611111111  10.5902777777778 7.10416666666667  C 15.1427469135802 4.8125  19.2033179012346 3.66666666666667  22.7719907407407 3.66666666666667  C 24.8360339506173 3.66666666666667  26.7650462962963 3.94357638888889  28.5590277777778 4.49739583333333  C 30.3530092592593 5.05121527777778  32.4652777777778 5.89149305555555  34.8958333333333 7.01822916666667  C 35.6288580246914 7.38107638888889  36.4776234567901 7.5625  37.4421296296296 7.5625  C 38.4837962962963 7.5625  39.6170910493827 7.36197916666667  40.8420138888889 6.9609375  C 42.0669367283951 6.55989583333333  43.1278935185185 6.11111111111111  44.0248842592593 5.61458333333333  C 44.921875 5.11805555555555  45.7706404320988 4.66927083333333  46.5711805555556 4.26822916666667  C 47.3717206790123 3.8671875  47.8973765432099 3.66666666666667  48.1481481481481 3.66666666666667  C 48.6496913580247 3.66666666666667  49.0837191358025 3.84809027777778  49.4502314814815 4.2109375  Z " fill-rule="nonzero" fill="#2699fb" stroke="none" transform="matrix(1 0 0 1 548 252 )" />
  </g>
</svg>