<?xml version="1.0" encoding="utf-8"?>
<svg version="1.1" xmlns:xlink="http://www.w3.org/1999/xlink" width="50px" height="50px" xmlns="http://www.w3.org/2000/svg">
  <g transform="matrix(1 0 0 1 -218 -1916 )">
    <path d="M 33.0403645833333 41.3736979166667  C 33.2356770833333 41.1783854166667  33.3333333333333 40.9288194444444  33.3333333333333 40.625  L 33.3333333333333 35.4166666666667  C 33.3333333333333 35.1128472222222  33.2356770833333 34.86328125  33.0403645833333 34.66796875  C 32.8450520833333 34.47265625  32.5954861111111 34.375  32.2916666666667 34.375  L 29 34.375  L 29 17.7083333333333  C 29.1666666666667 17.4045138888889  29.0690104166667 17.1549479166667  28.8736979166667 16.9596354166667  C 28.6783854166667 16.7643229166667  28.4288194444444 16.6666666666667  28.125 17  L 17.7083333333333 17  C 17.4045138888889 16.6666666666667  17.1549479166667 16.7643229166667  16.9596354166667 16.9596354166667  C 16.7643229166667 17.1549479166667  16.6666666666667 17.4045138888889  16.6666666666667 17.7083333333333  L 16.6666666666667 22.9166666666667  C 16.6666666666667 23.2204861111111  16.7643229166667 23.4700520833333  16.9596354166667 23.6653645833333  C 17.1549479166667 23.8606770833333  17.4045138888889 23.9583333333333  17.7083333333333 23.9583333333333  L 21 23.9583333333333  L 21 34.375  L 17.7083333333333 34.375  C 17.4045138888889 34.375  17.1549479166667 34.47265625  16.9596354166667 34.66796875  C 16.7643229166667 34.86328125  16.6666666666667 35.1128472222222  16.6666666666667 35.4166666666667  L 16.6666666666667 40.625  C 16.6666666666667 40.9288194444444  16.7643229166667 41.1783854166667  16.9596354166667 41.3736979166667  C 17.1549479166667 41.5690104166667  17.4045138888889 41.6666666666667  17.7083333333333 41  L 32.2916666666667 41  C 32.5954861111111 41.6666666666667  32.8450520833333 41.5690104166667  33.0403645833333 41.3736979166667  Z M 28.8736979166667 12.20703125  C 29.0690104166667 12.01171875  29.1666666666667 11.7621527777778  29.1666666666667 11.4583333333333  L 29.1666666666667 6.25  C 29.1666666666667 5.94618055555555  29.0690104166667 5.69661458333333  28.8736979166667 5.50130208333333  C 28.6783854166667 5.30598958333333  28.4288194444444 5.20833333333333  28.125 5.20833333333333  L 21.875 5.20833333333333  C 21.5711805555556 5.20833333333333  21.3216145833333 5.30598958333333  21.1263020833333 5.50130208333333  C 20.9309895833333 5.69661458333333  20.8333333333333 5.94618055555555  20.8333333333333 6.25  L 20.8333333333333 11.4583333333333  C 20.8333333333333 11.7621527777778  20.9309895833333 12.01171875  21.1263020833333 12.20703125  C 21.3216145833333 12.40234375  21.5711805555556 12.5  21.875 12.5  L 28.125 12.5  C 28.4288194444444 12.5  28.6783854166667 12.40234375  28.8736979166667 12.20703125  Z M 46.6471354166667 12.451171875  C 48.8823784722222 16.2814670138889  50 20.4644097222222  50 25  C 50 29.5355902777778  48.8823784722222 33.7185329861111  46.6471354166667 37.548828125  C 44.4118923611111 41.3791232638889  41.3791232638889 44.4118923611111  37.548828125 46.6471354166667  C 33.7185329861111 48.8823784722222  29.5355902777778 50  25 50  C 20.4644097222222 50  16.2814670138889 48.8823784722222  12.451171875 46.6471354166667  C 8.62087673611111 44.4118923611111  5.58810763888889 41.3791232638889  3.35286458333333 37.548828125  C 1.11762152777778 33.7185329861111  0 29.5355902777778  0 25  C 0 20.4644097222222  1.11762152777778 16.2814670138889  3.35286458333333 12.451171875  C 5.58810763888889 8.62087673611111  8.62087673611111 5.58810763888888  12.451171875 3.35286458333333  C 16.2814670138889 1.11762152777777  20.4644097222222 0  25 0  C 29.5355902777778 0  33.7185329861111 1.11762152777777  37.548828125 3.35286458333333  C 41.3791232638889 5.58810763888888  44.4118923611111 8.62087673611111  46.6471354166667 12.451171875  Z " fill-rule="nonzero" fill="#2699fb" stroke="none" transform="matrix(1 0 0 1 218 1916 )" />
  </g>
</svg>