<?xml version="1.0" encoding="utf-8"?>
<svg version="1.1" xmlns:xlink="http://www.w3.org/1999/xlink" width="14px" height="14px" viewBox="359 4821.5  14 14" xmlns="http://www.w3.org/2000/svg">
  <path d="M 359.5 4823.5  A 1.5 1.5 0 0 1 361 4822 L 371 4822  A 1.5 1.5 0 0 1 372.5 4823.5 L 372.5 4833.5  A 1.5 1.5 0 0 1 371 4835 L 361 4835  A 1.5 1.5 0 0 1 359.5 4833.5 L 359.5 4823.5  Z " fill-rule="nonzero" fill="#ffffff" stroke="none" />
  <path d="M 359.5 4823.5  A 1.5 1.5 0 0 1 361 4822 L 371 4822  A 1.5 1.5 0 0 1 372.5 4823.5 L 372.5 4833.5  A 1.5 1.5 0 0 1 371 4835 L 361 4835  A 1.5 1.5 0 0 1 359.5 4833.5 L 359.5 4823.5  Z " stroke-width="1" stroke="#2699fb" fill="none" />
  <path d="M 362.5 4829  L 365.5 4832  " stroke-width="3" stroke="#2699fb" fill="none" />
  <path d="M 365.5 4832  L 370.5 4825  " stroke-width="3" stroke="#2699fb" fill="none" />
</svg>