<?xml version="1.0" encoding="utf-8"?>
<svg version="1.1" xmlns:xlink="http://www.w3.org/1999/xlink" width="14px" height="14px" viewBox="57 7483  14 14" xmlns="http://www.w3.org/2000/svg">
  <path d="M 57.5 7485  A 1.5 1.5 0 0 1 59 7483.5 L 69 7483.5  A 1.5 1.5 0 0 1 70.5 7485 L 70.5 7495  A 1.5 1.5 0 0 1 69 7496.5 L 59 7496.5  A 1.5 1.5 0 0 1 57.5 7495 L 57.5 7485  Z " fill-rule="nonzero" fill="#ffffff" stroke="none" />
  <path d="M 57.5 7485  A 1.5 1.5 0 0 1 59 7483.5 L 69 7483.5  A 1.5 1.5 0 0 1 70.5 7485 L 70.5 7495  A 1.5 1.5 0 0 1 69 7496.5 L 59 7496.5  A 1.5 1.5 0 0 1 57.5 7495 L 57.5 7485  Z " stroke-width="1" stroke="#2699fb" fill="none" />
</svg>