<?xml version="1.0" encoding="utf-8"?>
<svg version="1.1" xmlns:xlink="http://www.w3.org/1999/xlink" width="14px" height="14px" viewBox="359 3668.5  14 14" xmlns="http://www.w3.org/2000/svg">
  <path d="M 359.5 3670.5  A 1.5 1.5 0 0 1 361 3669 L 371 3669  A 1.5 1.5 0 0 1 372.5 3670.5 L 372.5 3680.5  A 1.5 1.5 0 0 1 371 3682 L 361 3682  A 1.5 1.5 0 0 1 359.5 3680.5 L 359.5 3670.5  Z " fill-rule="nonzero" fill="#f0f0f0" stroke="none" />
  <path d="M 359.5 3670.5  A 1.5 1.5 0 0 1 361 3669 L 371 3669  A 1.5 1.5 0 0 1 372.5 3670.5 L 372.5 3680.5  A 1.5 1.5 0 0 1 371 3682 L 361 3682  A 1.5 1.5 0 0 1 359.5 3680.5 L 359.5 3670.5  Z " stroke-width="1" stroke="#2699fb" fill="none" />
  <path d="M 362.5 3676  L 365.5 3679  " stroke-width="3" stroke="#2699fb" fill="none" />
  <path d="M 365.5 3679  L 370.5 3672  " stroke-width="3" stroke="#2699fb" fill="none" />
</svg>