<?xml version="1.0" encoding="utf-8"?>
<svg version="1.1" xmlns:xlink="http://www.w3.org/1999/xlink" width="14px" height="14px" viewBox="57 6243  14 14" xmlns="http://www.w3.org/2000/svg">
  <path d="M 57.5 6245  A 1.5 1.5 0 0 1 59 6243.5 L 69 6243.5  A 1.5 1.5 0 0 1 70.5 6245 L 70.5 6255  A 1.5 1.5 0 0 1 69 6256.5 L 59 6256.5  A 1.5 1.5 0 0 1 57.5 6255 L 57.5 6245  Z " fill-rule="nonzero" fill="#ffffff" stroke="none" />
  <path d="M 57.5 6245  A 1.5 1.5 0 0 1 59 6243.5 L 69 6243.5  A 1.5 1.5 0 0 1 70.5 6245 L 70.5 6255  A 1.5 1.5 0 0 1 69 6256.5 L 59 6256.5  A 1.5 1.5 0 0 1 57.5 6255 L 57.5 6245  Z " stroke-width="1" stroke="#2699fb" fill="none" />
</svg>